<svg xmlns="http://www.w3.org/2000/svg" xmlns:xlink="http://www.w3.org/1999/xlink" width="500" zoomAndPan="magnify" viewBox="0 0 375 374.999991" height="500" preserveAspectRatio="xMidYMid meet" version="1.0"><defs><clipPath id="1c0d920a9b"><path d="M 109.25 97.167969 L 266 97.167969 L 266 277.917969 L 109.25 277.917969 Z M 109.25 97.167969 " clip-rule="nonzero"/></clipPath></defs><g clip-path="url(#1c0d920a9b)"><path fill="#0097b2" d="M 109.265625 151.539062 L 109.265625 192.085938 L 125.152344 201.257812 L 206.773438 248.382812 L 187.496094 259.480469 L 125.152344 223.523438 L 109.265625 214.351562 L 109.265625 232.695312 L 187.496094 277.824219 L 203.382812 268.652344 L 214.683594 262.140625 L 222.660156 257.554688 L 226.644531 255.292969 L 230.566406 252.96875 L 238.542969 248.382812 L 257.820312 237.28125 L 265.261719 232.960938 L 265.730469 232.164062 L 265.730469 182.910156 L 249.84375 173.738281 L 168.222656 126.613281 L 187.496094 115.515625 L 249.84375 151.539062 L 265.730469 160.710938 L 265.730469 142.367188 L 187.496094 97.167969 L 171.613281 106.34375 L 160.3125 112.855469 L 152.335938 117.441406 L 148.414062 119.769531 L 144.425781 122.027344 L 136.449219 126.613281 L 117.175781 137.78125 L 109.730469 142.101562 L 109.265625 142.898438 Z M 249.84375 192.085938 L 241.933594 187.496094 L 232.894531 182.3125 L 160.3125 140.371094 L 160.3125 162.640625 L 203.382812 187.496094 L 214.683594 194.011719 L 230.566406 203.183594 L 230.566406 234.621094 L 241.933594 228.109375 L 249.84375 223.523438 Z M 125.152344 182.910156 L 133.0625 187.496094 L 138.445312 190.554688 L 214.683594 234.621094 L 214.683594 212.355469 L 171.613281 187.496094 L 160.3125 180.984375 L 144.425781 171.8125 L 144.425781 140.371094 L 133.0625 146.953125 L 125.152344 151.539062 Z M 125.152344 182.910156 " fill-opacity="1" fill-rule="evenodd"/></g></svg>