<svg xmlns="http://www.w3.org/2000/svg" xmlns:xlink="http://www.w3.org/1999/xlink" width="500" zoomAndPan="magnify" viewBox="0 0 375 374.999991" height="500" preserveAspectRatio="xMidYMid meet" version="1.0"><defs><g/><clipPath id="ade1faf637"><path d="M 141.5 93.554688 L 233.75 93.554688 L 233.75 200 L 141.5 200 Z M 141.5 93.554688 " clip-rule="nonzero"/></clipPath></defs><g clip-path="url(#ade1faf637)"><path fill="#ffffff" d="M 141.511719 125.515625 L 141.511719 149.351562 L 150.847656 154.742188 L 198.828125 182.441406 L 187.496094 188.96875 L 150.847656 167.832031 L 141.511719 162.4375 L 141.511719 173.222656 L 187.496094 199.75 L 196.835938 194.359375 L 203.476562 190.53125 L 208.164062 187.835938 L 210.511719 186.507812 L 212.816406 185.140625 L 217.503906 182.441406 L 228.835938 175.917969 L 233.210938 173.378906 L 233.484375 172.910156 L 233.484375 143.957031 L 224.144531 138.566406 L 176.167969 110.863281 L 187.496094 104.339844 L 224.144531 125.515625 L 233.484375 130.90625 L 233.484375 120.125 L 187.496094 93.554688 L 178.160156 98.949219 L 171.515625 102.777344 L 166.828125 105.472656 L 164.523438 106.839844 L 162.179688 108.167969 L 157.492188 110.863281 L 146.160156 117.429688 L 141.785156 119.96875 L 141.511719 120.4375 Z M 224.144531 149.351562 L 219.496094 146.652344 L 214.183594 143.605469 L 171.515625 118.953125 L 171.515625 132.042969 L 196.835938 146.652344 L 203.476562 150.484375 L 212.816406 155.875 L 212.816406 174.355469 L 219.496094 170.527344 L 224.144531 167.832031 Z M 150.847656 143.957031 L 155.496094 146.652344 L 158.664062 148.449219 L 203.476562 174.355469 L 203.476562 161.265625 L 178.160156 146.652344 L 171.515625 142.824219 L 162.179688 137.433594 L 162.179688 118.953125 L 155.496094 122.820312 L 150.847656 125.515625 Z M 150.847656 143.957031 " fill-opacity="1" fill-rule="evenodd"/></g><g fill="#ffffff" fill-opacity="1"><g transform="translate(102.634224, 235.314301)"><g><path d="M 8.53125 0.34375 C 6.28125 0.34375 4.46875 -0.222656 3.09375 -1.359375 C 1.726562 -2.503906 1.03125 -4.113281 1 -6.1875 L 5.671875 -6.1875 C 5.703125 -5.320312 5.957031 -4.648438 6.4375 -4.171875 C 6.914062 -3.691406 7.601562 -3.453125 8.5 -3.453125 C 9.351562 -3.453125 9.992188 -3.613281 10.421875 -3.9375 C 10.847656 -4.257812 11.0625 -4.703125 11.0625 -5.265625 C 11.0625 -5.878906 10.78125 -6.351562 10.21875 -6.6875 C 9.664062 -7.019531 8.789062 -7.375 7.59375 -7.75 C 6.332031 -8.144531 5.289062 -8.539062 4.46875 -8.9375 C 3.644531 -9.332031 2.941406 -9.925781 2.359375 -10.71875 C 1.773438 -11.507812 1.484375 -12.550781 1.484375 -13.84375 C 1.484375 -14.894531 1.773438 -15.828125 2.359375 -16.640625 C 2.941406 -17.460938 3.753906 -18.101562 4.796875 -18.5625 C 5.847656 -19.019531 7.046875 -19.25 8.390625 -19.25 C 9.617188 -19.25 10.765625 -19.023438 11.828125 -18.578125 C 12.890625 -18.128906 13.753906 -17.441406 14.421875 -16.515625 C 15.085938 -15.585938 15.425781 -14.445312 15.4375 -13.09375 L 10.859375 -13.09375 C 10.835938 -13.757812 10.625 -14.316406 10.21875 -14.765625 C 9.8125 -15.210938 9.203125 -15.4375 8.390625 -15.4375 C 7.691406 -15.4375 7.148438 -15.285156 6.765625 -14.984375 C 6.378906 -14.679688 6.1875 -14.269531 6.1875 -13.75 C 6.1875 -13.132812 6.460938 -12.664062 7.015625 -12.34375 C 7.578125 -12.019531 8.453125 -11.664062 9.640625 -11.28125 C 10.898438 -10.90625 11.9375 -10.519531 12.75 -10.125 C 13.570312 -9.726562 14.28125 -9.128906 14.875 -8.328125 C 15.46875 -7.523438 15.765625 -6.46875 15.765625 -5.15625 C 15.765625 -4.144531 15.476562 -3.222656 14.90625 -2.390625 C 14.34375 -1.554688 13.515625 -0.890625 12.421875 -0.390625 C 11.335938 0.0976562 10.039062 0.34375 8.53125 0.34375 Z M 8.53125 0.34375 "/></g></g></g><g fill="#ffffff" fill-opacity="1"><g transform="translate(119.401225, 235.314301)"><g><path d="M 8.5625 -11.859375 L 12.015625 -18.90625 L 17.0625 -18.90625 L 10.859375 -7.296875 L 10.859375 0 L 6.125 0 L 6.125 -7.296875 L -0.03125 -18.90625 L 5.109375 -18.90625 Z M 8.5625 -11.859375 "/></g></g></g><g fill="#ffffff" fill-opacity="1"><g transform="translate(136.438227, 235.314301)"><g><path d="M 15.5 -7.5 L 15.5 -18.90625 L 20.03125 -18.90625 L 20.03125 0 L 16.734375 0 L 6.75 -11.34375 L 6.75 0 L 2.21875 0 L 2.21875 -18.90625 L 5.484375 -18.90625 Z M 15.5 -7.5 "/></g></g></g><g fill="#ffffff" fill-opacity="1"><g transform="translate(158.65923, 235.314301)"><g><path d="M 6.9375 -7.6875 L 6.9375 -4.015625 L 14.6875 -4.015625 L 14.6875 0 L 2.21875 0 L 2.21875 -18.90625 L 14.421875 -18.90625 L 14.421875 -14.875 L 6.9375 -14.875 L 6.9375 -11.609375 L 14.140625 -11.609375 L 14.140625 -7.6875 Z M 6.9375 -7.6875 "/></g></g></g><g fill="#ffffff" fill-opacity="1"><g transform="translate(174.751235, 235.314301)"><g><path d="M 12.3125 -9.796875 L 18.0625 0 L 12.765625 0 L 9.15625 -6.5625 L 5.5625 0 L 0.328125 0 L 6.078125 -9.78125 L 0.890625 -18.90625 L 6.109375 -18.90625 L 9.203125 -12.953125 L 12.3125 -18.90625 L 17.5 -18.90625 Z M 12.3125 -9.796875 "/></g></g></g><g fill="#ffffff" fill-opacity="1"><g transform="translate(193.111242, 235.314301)"><g/></g></g><g fill="#ffffff" fill-opacity="1"><g transform="translate(201.319242, 235.314301)"><g><path d="M 11.15625 0.34375 C 9.351562 0.34375 7.679688 -0.0546875 6.140625 -0.859375 C 4.597656 -1.671875 3.367188 -2.820312 2.453125 -4.3125 C 1.535156 -5.8125 1.078125 -7.523438 1.078125 -9.453125 C 1.078125 -11.378906 1.535156 -13.085938 2.453125 -14.578125 C 3.367188 -16.078125 4.597656 -17.226562 6.140625 -18.03125 C 7.679688 -18.84375 9.351562 -19.25 11.15625 -19.25 C 12.695312 -19.25 14.132812 -18.953125 15.46875 -18.359375 C 16.800781 -17.765625 17.9375 -16.90625 18.875 -15.78125 C 19.820312 -14.65625 20.488281 -13.335938 20.875 -11.828125 L 15.953125 -11.828125 C 15.554688 -12.765625 14.941406 -13.515625 14.109375 -14.078125 C 13.273438 -14.648438 12.296875 -14.9375 11.171875 -14.9375 C 10.179688 -14.9375 9.28125 -14.695312 8.46875 -14.21875 C 7.664062 -13.738281 7.035156 -13.082031 6.578125 -12.25 C 6.117188 -11.425781 5.890625 -10.492188 5.890625 -9.453125 C 5.890625 -8.410156 6.117188 -7.472656 6.578125 -6.640625 C 7.035156 -5.816406 7.664062 -5.164062 8.46875 -4.6875 C 9.28125 -4.207031 10.179688 -3.96875 11.171875 -3.96875 C 12.328125 -3.96875 13.316406 -4.25 14.140625 -4.8125 C 14.972656 -5.382812 15.585938 -6.144531 15.984375 -7.09375 L 20.875 -7.09375 C 20.488281 -5.570312 19.828125 -4.25 18.890625 -3.125 C 17.960938 -2 16.832031 -1.140625 15.5 -0.546875 C 14.164062 0.046875 12.71875 0.34375 11.15625 0.34375 Z M 11.15625 0.34375 "/></g></g></g><g fill="#ffffff" fill-opacity="1"><g transform="translate(223.108253, 235.314301)"><g><path d="M 11.234375 0.34375 C 9.410156 0.34375 7.71875 -0.0625 6.15625 -0.875 C 4.601562 -1.695312 3.367188 -2.851562 2.453125 -4.34375 C 1.535156 -5.84375 1.078125 -7.546875 1.078125 -9.453125 C 1.078125 -11.359375 1.535156 -13.054688 2.453125 -14.546875 C 3.367188 -16.046875 4.601562 -17.203125 6.15625 -18.015625 C 7.71875 -18.835938 9.410156 -19.25 11.234375 -19.25 C 13.046875 -19.25 14.726562 -18.835938 16.28125 -18.015625 C 17.84375 -17.203125 19.082031 -16.046875 20 -14.546875 C 20.925781 -13.054688 21.390625 -11.359375 21.390625 -9.453125 C 21.390625 -7.546875 20.925781 -5.84375 20 -4.34375 C 19.082031 -2.851562 17.84375 -1.695312 16.28125 -0.875 C 14.726562 -0.0625 13.046875 0.34375 11.234375 0.34375 Z M 11.234375 -3.96875 C 12.242188 -3.96875 13.15625 -4.203125 13.96875 -4.671875 C 14.789062 -5.140625 15.429688 -5.785156 15.890625 -6.609375 C 16.347656 -7.441406 16.578125 -8.390625 16.578125 -9.453125 C 16.578125 -10.515625 16.347656 -11.457031 15.890625 -12.28125 C 15.429688 -13.113281 14.789062 -13.765625 13.96875 -14.234375 C 13.15625 -14.703125 12.242188 -14.9375 11.234375 -14.9375 C 10.222656 -14.9375 9.304688 -14.703125 8.484375 -14.234375 C 7.671875 -13.765625 7.035156 -13.113281 6.578125 -12.28125 C 6.117188 -11.457031 5.890625 -10.515625 5.890625 -9.453125 C 5.890625 -8.390625 6.117188 -7.441406 6.578125 -6.609375 C 7.035156 -5.785156 7.671875 -5.140625 8.484375 -4.671875 C 9.304688 -4.203125 10.222656 -3.96875 11.234375 -3.96875 Z M 11.234375 -3.96875 "/></g></g></g><g fill="#ffffff" fill-opacity="1"><g transform="translate(245.57226, 235.314301)"><g><path d="M 2.21875 0 L 2.21875 -18.90625 L 8.96875 -18.90625 C 11.09375 -18.90625 12.945312 -18.507812 14.53125 -17.71875 C 16.125 -16.9375 17.359375 -15.832031 18.234375 -14.40625 C 19.109375 -12.976562 19.546875 -11.328125 19.546875 -9.453125 C 19.546875 -7.578125 19.109375 -5.921875 18.234375 -4.484375 C 17.359375 -3.054688 16.125 -1.953125 14.53125 -1.171875 C 12.945312 -0.390625 11.09375 0 8.96875 0 Z M 8.859375 -4.125 C 10.671875 -4.125 12.097656 -4.601562 13.140625 -5.5625 C 14.191406 -6.53125 14.71875 -7.828125 14.71875 -9.453125 C 14.71875 -11.066406 14.191406 -12.351562 13.140625 -13.3125 C 12.097656 -14.28125 10.671875 -14.765625 8.859375 -14.765625 L 6.9375 -14.765625 L 6.9375 -4.125 Z M 8.859375 -4.125 "/></g></g></g><g fill="#ffffff" fill-opacity="1"><g transform="translate(266.200268, 235.314301)"><g><path d="M 6.9375 -7.6875 L 6.9375 -4.015625 L 14.6875 -4.015625 L 14.6875 0 L 2.21875 0 L 2.21875 -18.90625 L 14.421875 -18.90625 L 14.421875 -14.875 L 6.9375 -14.875 L 6.9375 -11.609375 L 14.140625 -11.609375 L 14.140625 -7.6875 Z M 6.9375 -7.6875 "/></g></g></g><g fill="#ffffff" fill-opacity="1"><g transform="translate(123.062233, 250.197636)"><g><path d="M 2.09375 0 L 0.703125 0 L 0.703125 -5.59375 L 2.09375 -5.59375 Z M 2.09375 0 "/></g></g></g><g fill="#ffffff" fill-opacity="1"><g transform="translate(128.486266, 250.197636)"><g><path d="M 4.59375 -2.21875 L 4.59375 -5.59375 L 5.9375 -5.59375 L 5.9375 0 L 4.953125 0 L 2 -3.359375 L 2 0 L 0.65625 0 L 0.65625 -5.59375 L 1.625 -5.59375 Z M 4.59375 -2.21875 "/></g></g></g><g fill="#ffffff" fill-opacity="1"><g transform="translate(137.710339, 250.197636)"><g><path d="M 4.59375 -2.21875 L 4.59375 -5.59375 L 5.9375 -5.59375 L 5.9375 0 L 4.953125 0 L 2 -3.359375 L 2 0 L 0.65625 0 L 0.65625 -5.59375 L 1.625 -5.59375 Z M 4.59375 -2.21875 "/></g></g></g><g fill="#ffffff" fill-opacity="1"><g transform="translate(146.934413, 250.197636)"><g><path d="M 3.328125 0.109375 C 2.785156 0.109375 2.285156 -0.0078125 1.828125 -0.25 C 1.367188 -0.5 1 -0.84375 0.71875 -1.28125 C 0.445312 -1.726562 0.3125 -2.234375 0.3125 -2.796875 C 0.3125 -3.359375 0.445312 -3.859375 0.71875 -4.296875 C 1 -4.742188 1.367188 -5.085938 1.828125 -5.328125 C 2.285156 -5.578125 2.785156 -5.703125 3.328125 -5.703125 C 3.867188 -5.703125 4.367188 -5.578125 4.828125 -5.328125 C 5.285156 -5.085938 5.648438 -4.742188 5.921875 -4.296875 C 6.191406 -3.859375 6.328125 -3.359375 6.328125 -2.796875 C 6.328125 -2.234375 6.191406 -1.726562 5.921875 -1.28125 C 5.648438 -0.84375 5.285156 -0.5 4.828125 -0.25 C 4.367188 -0.0078125 3.867188 0.109375 3.328125 0.109375 Z M 3.328125 -1.171875 C 3.628906 -1.171875 3.898438 -1.238281 4.140625 -1.375 C 4.378906 -1.519531 4.566406 -1.710938 4.703125 -1.953125 C 4.835938 -2.203125 4.90625 -2.484375 4.90625 -2.796875 C 4.90625 -3.109375 4.835938 -3.390625 4.703125 -3.640625 C 4.566406 -3.890625 4.378906 -4.082031 4.140625 -4.21875 C 3.898438 -4.351562 3.628906 -4.421875 3.328125 -4.421875 C 3.023438 -4.421875 2.753906 -4.351562 2.515625 -4.21875 C 2.273438 -4.082031 2.085938 -3.890625 1.953125 -3.640625 C 1.816406 -3.390625 1.75 -3.109375 1.75 -2.796875 C 1.75 -2.484375 1.816406 -2.203125 1.953125 -1.953125 C 2.085938 -1.710938 2.273438 -1.519531 2.515625 -1.375 C 2.753906 -1.238281 3.023438 -1.171875 3.328125 -1.171875 Z M 3.328125 -1.171875 "/></g></g></g><g fill="#ffffff" fill-opacity="1"><g transform="translate(156.230487, 250.197636)"><g><path d="M 2.828125 -1.890625 L 4.078125 -5.59375 L 5.546875 -5.59375 L 3.46875 0 L 2.15625 0 L 0.078125 -5.59375 L 1.5625 -5.59375 Z M 2.828125 -1.890625 "/></g></g></g><g fill="#ffffff" fill-opacity="1"><g transform="translate(164.494555, 250.197636)"><g><path d="M 5.78125 0 L 4.34375 0 L 3.953125 -1.09375 L 1.859375 -1.09375 L 1.484375 0 L 0.0625 0 L 2.1875 -5.59375 L 3.640625 -5.59375 Z M 2.21875 -2.265625 L 3.59375 -2.265625 L 2.90625 -4.203125 Z M 2.21875 -2.265625 "/></g></g></g><g fill="#ffffff" fill-opacity="1"><g transform="translate(172.966624, 250.197636)"><g><path d="M 2.9375 0 L 1.53125 0 L 1.53125 -4.34375 L 0.15625 -4.34375 L 0.15625 -5.59375 L 4.296875 -5.59375 L 4.296875 -4.34375 L 2.9375 -4.34375 Z M 2.9375 0 "/></g></g></g><g fill="#ffffff" fill-opacity="1"><g transform="translate(180.062679, 250.197636)"><g><path d="M 2.0625 -2.28125 L 2.0625 -1.1875 L 4.359375 -1.1875 L 4.359375 0 L 0.65625 0 L 0.65625 -5.59375 L 4.265625 -5.59375 L 4.265625 -4.40625 L 2.0625 -4.40625 L 2.0625 -3.4375 L 4.1875 -3.4375 L 4.1875 -2.28125 Z M 2.0625 -2.28125 "/></g></g></g><g fill="#ffffff" fill-opacity="1"><g transform="translate(187.470736, 250.197636)"><g/></g></g><g fill="#ffffff" fill-opacity="1"><g transform="translate(192.542768, 250.197636)"><g><path d="M 5.875 -2.125 L 6.859375 -5.59375 L 8.328125 -5.59375 L 6.515625 0 L 5.296875 0 L 4.21875 -3.59375 L 3.125 0 L 1.921875 0 L 0.09375 -5.59375 L 1.578125 -5.59375 L 2.5625 -2.140625 L 3.640625 -5.59375 L 4.796875 -5.59375 Z M 5.875 -2.125 "/></g></g></g><g fill="#ffffff" fill-opacity="1"><g transform="translate(203.614858, 250.197636)"><g><path d="M 2.09375 0 L 0.703125 0 L 0.703125 -5.59375 L 2.09375 -5.59375 Z M 2.09375 0 "/></g></g></g><g fill="#ffffff" fill-opacity="1"><g transform="translate(209.038891, 250.197636)"><g><path d="M 2.9375 0 L 1.53125 0 L 1.53125 -4.34375 L 0.15625 -4.34375 L 0.15625 -5.59375 L 4.296875 -5.59375 L 4.296875 -4.34375 L 2.9375 -4.34375 Z M 2.9375 0 "/></g></g></g><g fill="#ffffff" fill-opacity="1"><g transform="translate(216.134951, 250.197636)"><g><path d="M 4.0625 -3.484375 L 4.0625 -5.59375 L 5.46875 -5.59375 L 5.46875 0 L 4.0625 0 L 4.0625 -2.21875 L 2.0625 -2.21875 L 2.0625 0 L 0.65625 0 L 0.65625 -5.59375 L 2.0625 -5.59375 L 2.0625 -3.484375 Z M 4.0625 -3.484375 "/></g></g></g><g fill="#ffffff" fill-opacity="1"><g transform="translate(224.887022, 250.197636)"><g/></g></g><g fill="#ffffff" fill-opacity="1"><g transform="translate(229.959058, 250.197636)"><g><path d="M 3.296875 0.109375 C 2.765625 0.109375 2.269531 -0.0078125 1.8125 -0.25 C 1.363281 -0.488281 1 -0.828125 0.71875 -1.265625 C 0.445312 -1.710938 0.3125 -2.222656 0.3125 -2.796875 C 0.3125 -3.367188 0.445312 -3.875 0.71875 -4.3125 C 1 -4.757812 1.363281 -5.101562 1.8125 -5.34375 C 2.269531 -5.582031 2.765625 -5.703125 3.296875 -5.703125 C 3.753906 -5.703125 4.179688 -5.613281 4.578125 -5.4375 C 4.972656 -5.257812 5.3125 -5.003906 5.59375 -4.671875 C 5.875 -4.335938 6.070312 -3.945312 6.1875 -3.5 L 4.734375 -3.5 C 4.609375 -3.78125 4.421875 -4.003906 4.171875 -4.171875 C 3.929688 -4.335938 3.644531 -4.421875 3.3125 -4.421875 C 3.019531 -4.421875 2.753906 -4.347656 2.515625 -4.203125 C 2.273438 -4.066406 2.085938 -3.875 1.953125 -3.625 C 1.816406 -3.382812 1.75 -3.109375 1.75 -2.796875 C 1.75 -2.492188 1.816406 -2.21875 1.953125 -1.96875 C 2.085938 -1.71875 2.273438 -1.519531 2.515625 -1.375 C 2.753906 -1.238281 3.019531 -1.171875 3.3125 -1.171875 C 3.65625 -1.171875 3.945312 -1.253906 4.1875 -1.421875 C 4.4375 -1.597656 4.617188 -1.828125 4.734375 -2.109375 L 6.1875 -2.109375 C 6.070312 -1.648438 5.875 -1.253906 5.59375 -0.921875 C 5.320312 -0.585938 4.988281 -0.332031 4.59375 -0.15625 C 4.195312 0.0195312 3.765625 0.109375 3.296875 0.109375 Z M 3.296875 0.109375 "/></g></g></g><g fill="#ffffff" fill-opacity="1"><g transform="translate(239.055135, 250.197636)"><g><path d="M 3.328125 0.109375 C 2.785156 0.109375 2.285156 -0.0078125 1.828125 -0.25 C 1.367188 -0.5 1 -0.84375 0.71875 -1.28125 C 0.445312 -1.726562 0.3125 -2.234375 0.3125 -2.796875 C 0.3125 -3.359375 0.445312 -3.859375 0.71875 -4.296875 C 1 -4.742188 1.367188 -5.085938 1.828125 -5.328125 C 2.285156 -5.578125 2.785156 -5.703125 3.328125 -5.703125 C 3.867188 -5.703125 4.367188 -5.578125 4.828125 -5.328125 C 5.285156 -5.085938 5.648438 -4.742188 5.921875 -4.296875 C 6.191406 -3.859375 6.328125 -3.359375 6.328125 -2.796875 C 6.328125 -2.234375 6.191406 -1.726562 5.921875 -1.28125 C 5.648438 -0.84375 5.285156 -0.5 4.828125 -0.25 C 4.367188 -0.0078125 3.867188 0.109375 3.328125 0.109375 Z M 3.328125 -1.171875 C 3.628906 -1.171875 3.898438 -1.238281 4.140625 -1.375 C 4.378906 -1.519531 4.566406 -1.710938 4.703125 -1.953125 C 4.835938 -2.203125 4.90625 -2.484375 4.90625 -2.796875 C 4.90625 -3.109375 4.835938 -3.390625 4.703125 -3.640625 C 4.566406 -3.890625 4.378906 -4.082031 4.140625 -4.21875 C 3.898438 -4.351562 3.628906 -4.421875 3.328125 -4.421875 C 3.023438 -4.421875 2.753906 -4.351562 2.515625 -4.21875 C 2.273438 -4.082031 2.085938 -3.890625 1.953125 -3.640625 C 1.816406 -3.390625 1.75 -3.109375 1.75 -2.796875 C 1.75 -2.484375 1.816406 -2.203125 1.953125 -1.953125 C 2.085938 -1.710938 2.273438 -1.519531 2.515625 -1.375 C 2.753906 -1.238281 3.023438 -1.171875 3.328125 -1.171875 Z M 3.328125 -1.171875 "/></g></g></g><g fill="#ffffff" fill-opacity="1"><g transform="translate(248.351214, 250.197636)"><g><path d="M 0.65625 0 L 0.65625 -5.59375 L 2.65625 -5.59375 C 3.28125 -5.59375 3.828125 -5.476562 4.296875 -5.25 C 4.773438 -5.019531 5.144531 -4.691406 5.40625 -4.265625 C 5.664062 -3.835938 5.796875 -3.347656 5.796875 -2.796875 C 5.796875 -2.242188 5.664062 -1.753906 5.40625 -1.328125 C 5.144531 -0.910156 4.773438 -0.582031 4.296875 -0.34375 C 3.828125 -0.113281 3.28125 0 2.65625 0 Z M 2.625 -1.21875 C 3.164062 -1.21875 3.585938 -1.359375 3.890625 -1.640625 C 4.203125 -1.929688 4.359375 -2.316406 4.359375 -2.796875 C 4.359375 -3.273438 4.203125 -3.65625 3.890625 -3.9375 C 3.585938 -4.226562 3.164062 -4.375 2.625 -4.375 L 2.0625 -4.375 L 2.0625 -1.21875 Z M 2.625 -1.21875 "/></g></g></g><g fill="#ffffff" fill-opacity="1"><g transform="translate(257.103285, 250.197636)"><g><path d="M 2.0625 -2.28125 L 2.0625 -1.1875 L 4.359375 -1.1875 L 4.359375 0 L 0.65625 0 L 0.65625 -5.59375 L 4.265625 -5.59375 L 4.265625 -4.40625 L 2.0625 -4.40625 L 2.0625 -3.4375 L 4.1875 -3.4375 L 4.1875 -2.28125 Z M 2.0625 -2.28125 "/></g></g></g></svg>