<?xml version="1.0" standalone="no"?>
<!DOCTYPE svg PUBLIC "-//W3C//DTD SVG 20010904//EN"
 "http://www.w3.org/TR/2001/REC-SVG-20010904/DTD/svg10.dtd">
<svg version="1.0" xmlns="http://www.w3.org/2000/svg"
 width="360.000000pt" height="329.000000pt" viewBox="0 0 360.000000 329.000000"
 preserveAspectRatio="xMidYMid meet">

<g transform="translate(0.000000,329.000000) scale(0.100000,-0.100000)"
fill="#000000" stroke="none">
<path d="M0 1645 l0 -1645 1800 0 1800 0 0 1645 0 1645 -1800 0 -1800 0 0
-1645z m2027 1195 c-52 -41 -63 -168 -19 -213 29 -29 79 -27 103 4 10 13 19
19 19 13 0 -15 -30 -40 -58 -49 -33 -10 -88 12 -117 46 -48 58 -24 167 45 201
47 24 59 23 27 -2z m-301 -73 c18 -29 42 -69 54 -89 l22 -38 -24 0 c-18 0 -34
18 -73 82 -63 103 -61 98 -33 98 17 0 31 -14 54 -53z m401 15 c-8 -9 -21 -30
-29 -46 -9 -17 -18 -24 -22 -18 -3 6 7 26 24 45 16 19 30 41 31 48 0 11 2 11
6 1 3 -7 -2 -21 -10 -30z m-619 -31 c2 -14 -9 -36 -33 -62 -30 -33 -34 -43
-24 -55 7 -9 25 -14 43 -12 27 3 31 7 34 36 2 18 7 30 12 27 11 -7 1 -46 -18
-67 -19 -22 -79 -24 -109 -3 -32 23 -48 79 -33 116 7 16 22 35 34 41 17 9 19
8 9 -3 -16 -16 -17 -63 -2 -91 11 -20 12 -20 30 8 20 31 26 84 8 84 -5 0 -8 4
-4 10 10 16 50 -6 53 -29z m-263 -67 c9 -9 29 -43 45 -75 l30 -58 -29 -15
c-27 -15 -29 -14 -24 3 3 11 -9 43 -25 72 -31 56 -56 68 -76 37 -8 -14 -4 -31
22 -82 30 -63 31 -66 12 -76 -21 -11 -37 -13 -27 -4 11 11 -64 144 -77 137 -6
-3 -2 3 8 15 12 14 26 20 38 16 10 -3 18 -1 18 5 0 16 30 41 50 41 10 0 26 -7
35 -16z m1085 -4 c12 -8 11 -10 -6 -10 -11 0 -28 -8 -37 -18 -27 -29 -49 -93
-43 -121 l6 -26 -20 24 c-25 30 -25 67 0 109 27 44 69 62 100 42z m60 -60 c5
-37 -2 -61 -26 -89 -20 -24 -34 -31 -62 -31 -36 0 -36 1 -13 13 40 20 65 63
66 112 0 42 1 43 17 27 9 -9 17 -24 18 -32z m-1387 -161 c21 -51 36 -94 33
-96 -2 -2 -44 16 -94 41 -49 25 -94 42 -98 38 -5 -4 2 5 15 21 14 15 27 23 30
18 9 -13 111 -63 111 -54 0 25 -36 103 -48 103 -7 0 -10 5 -7 10 13 21 22 8
58 -81z m724 68 c-10 -7 -46 -30 -80 -52 -223 -142 -357 -398 -357 -680 l0
-92 -100 30 c-67 21 -102 37 -105 48 -8 24 12 143 37 219 27 84 59 148 120
238 45 67 47 77 11 73 -7 -1 -13 3 -13 8 0 6 -8 7 -17 4 -15 -6 -16 -4 -5 9
10 13 9 15 -13 13 -22 -3 -23 -1 -14 16 25 47 165 124 279 152 96 24 98 25
190 25 69 1 82 -1 67 -11z m845 1 c8 -7 20 -21 25 -31 9 -17 12 -16 36 12 17
20 31 29 42 25 9 -4 15 -10 13 -15 -2 -5 -39 -52 -83 -104 -80 -94 -80 -94
-100 -74 -11 10 -32 29 -47 40 -16 11 -28 29 -28 40 0 33 29 79 63 99 37 23
57 25 79 8z m-1848 -154 c9 -3 16 -10 16 -15 0 -6 -8 -5 -19 1 -26 13 -46 5
-60 -27 -10 -22 -9 -29 3 -42 14 -13 21 -14 63 -1 27 8 70 14 98 14 44 1 51
-2 63 -26 15 -33 -1 -79 -40 -116 -22 -20 -28 -21 -52 -11 -14 7 -26 16 -26
21 0 5 9 4 19 -2 27 -14 34 -13 59 10 26 24 29 62 6 80 -12 11 -24 10 -68 -3
-62 -20 -117 -22 -134 -5 -18 18 -14 59 8 96 20 32 34 38 64 26z m326 -47 c0
-27 -25 -65 -36 -55 -4 5 0 16 9 26 10 10 17 26 17 35 0 9 2 17 5 17 3 0 5
-10 5 -23z m1734 -28 c30 -35 32 -51 10 -73 -19 -19 -17 -19 -61 -1 -19 8 -46
15 -59 15 -20 0 -24 -5 -24 -28 0 -15 5 -33 12 -40 9 -9 9 -12 1 -12 -7 0 -19
10 -27 22 -43 61 5 148 82 148 33 0 45 -6 66 -31z m-494 -117 c25 -14 59 -36
77 -49 23 -17 33 -21 39 -12 4 8 3 9 -4 5 -7 -4 -12 -2 -12 4 0 6 7 13 16 17
8 3 13 12 10 20 -3 8 -2 12 3 9 10 -7 24 22 16 34 -3 5 2 7 12 6 48 -7 143
-184 173 -325 14 -61 20 -120 18 -170 l-3 -76 -24 45 c-77 145 -237 291 -393
358 -57 25 -60 27 -55 57 3 16 11 44 18 60 12 28 15 37 18 51 2 9 43 -6 91
-34z m-687 -353 c31 -8 37 -14 39 -39 0 -17 1 -34 2 -40 1 -5 -3 -11 -9 -12
-5 -2 -12 12 -16 31 -9 42 -22 51 -78 51 -71 0 -102 -45 -66 -97 8 -12 50 -46
94 -77 116 -81 147 -135 115 -201 -20 -42 -83 -75 -143 -75 -65 0 -131 20
-131 39 0 9 -3 33 -6 54 -8 48 11 50 20 2 14 -71 129 -103 181 -50 49 48 30
87 -85 168 -85 60 -120 105 -120 152 0 42 25 72 75 90 48 17 78 18 128 4z
m437 -11 c34 -21 36 -55 6 -116 -19 -39 -25 -63 -21 -83 5 -22 3 -29 -8 -29
-19 0 -29 27 -21 53 3 11 19 40 35 65 16 25 29 54 29 63 0 30 -40 49 -104 49
-54 0 -61 -3 -92 -35 -39 -42 -49 -83 -41 -175 7 -84 44 -163 90 -190 47 -29
121 -27 152 4 13 13 27 36 31 50 3 14 10 26 15 26 12 0 12 -3 -7 -50 -19 -47
-53 -68 -122 -77 -170 -20 -286 144 -226 320 19 56 86 120 142 136 44 12 113
7 142 -11z m-1097 -299 c66 -93 210 -209 331 -264 l76 -34 -21 -53 c-12 -29
-24 -61 -26 -71 -8 -26 -40 -13 -182 76 -19 11 -32 16 -28 10 10 -16 -3 -43
-18 -37 -9 4 -11 -3 -8 -23 3 -19 2 -24 -5 -15 -7 11 -11 8 -16 -10 l-6 -23
-23 29 c-103 132 -149 260 -154 431 l-5 120 34 -56 c19 -31 42 -67 51 -80z
m-193 -247 c0 -10 -110 -46 -118 -38 -8 8 -3 11 48 29 52 18 70 20 70 9z
m1472 -34 c7 -7 18 -13 23 -14 15 -1 75 -25 75 -30 0 -10 -44 -91 -70 -129
-41 -62 -45 -69 -30 -60 10 6 12 4 7 -8 -3 -9 -1 -19 5 -23 7 -4 8 -3 4 4 -9
16 6 15 36 -1 15 -7 23 -18 20 -27 -5 -13 -3 -13 11 -1 10 8 17 9 17 3 0 -33
-167 -128 -285 -163 -79 -23 -275 -38 -275 -22 0 6 7 14 16 17 32 12 127 81
181 129 67 62 128 147 182 255 41 81 57 94 83 70z m611 -24 c49 -26 28 -32
-33 -10 -33 12 -60 25 -60 29 0 11 57 -1 93 -19z m-2069 -87 c-25 -48 -43 -71
-52 -62 -7 7 60 125 69 119 5 -3 -3 -28 -17 -57z m2018 -4 c27 -32 34 -50 12
-31 -11 9 -35 24 -54 32 l-35 15 31 1 c17 0 37 -8 46 -17z m-48 -60 c30 -15
53 -30 50 -35 -6 -9 -114 42 -114 54 0 12 5 10 64 -19z m-1865 -35 c-2 -30
-36 -112 -49 -116 -8 -3 -11 1 -8 9 3 8 14 38 24 67 17 48 35 69 33 40z m1821
-58 c11 -11 20 -28 20 -37 0 -14 -5 -12 -23 9 -12 15 -33 32 -47 37 l-25 10
28 0 c15 1 36 -8 47 -19z m-62 -75 c29 -20 32 -25 16 -25 -26 0 -64 35 -63 58
0 11 2 12 6 4 3 -7 21 -24 41 -37z m-1680 -11 c-15 -8 -34 -27 -42 -42 -12
-22 -15 -23 -16 -8 0 26 39 66 64 66 18 -1 18 -3 -6 -16z m38 -91 c-15 -13
-35 -23 -44 -23 -12 1 -10 5 8 15 14 7 32 26 40 41 13 23 16 24 19 9 2 -11 -8
-29 -23 -42z m1561 -33 c22 0 25 -2 13 -10 -8 -5 -23 -10 -33 -10 -22 0 -67
43 -67 66 0 12 8 8 29 -15 19 -20 39 -31 58 -31z m-1462 -11 c-8 -22 -14 -45
-12 -51 1 -6 -4 -13 -12 -16 -15 -5 -12 28 8 81 17 44 32 32 16 -14z m1265
-151 c0 -5 -4 -8 -8 -8 -12 0 -61 103 -55 114 5 8 61 -88 63 -106z m-1120 65
c0 -43 -14 -93 -25 -93 -9 0 -9 13 -2 55 10 52 27 76 27 38z m1033 -48 c15
-30 23 -55 18 -55 -10 0 -61 83 -61 99 0 26 18 7 43 -44z m-906 -42 c-24 -69
-25 -69 -36 -57 -10 10 34 114 48 114 5 0 -1 -26 -12 -57z m773 -9 c19 -53 20
-79 1 -58 -7 7 -41 100 -41 111 0 2 4 3 9 3 5 0 19 -25 31 -56z m-630 17 c0
-25 -24 -111 -32 -111 -11 0 -10 9 4 69 6 28 15 51 20 51 4 0 8 -4 8 -9z m498
-52 c14 -60 15 -69 3 -69 -4 0 -15 27 -23 60 -11 44 -11 60 -3 60 6 0 17 -23
23 -51z m-224 -17 c14 -28 21 -54 17 -61 -5 -8 -15 5 -29 38 -36 83 -27 100
12 23z m66 1 c30 -69 18 -88 -13 -21 -30 63 -31 68 -17 68 5 0 18 -21 30 -47z"/>
<path d="M2519 2491 c-14 -10 -34 -35 -44 -55 -18 -33 -18 -37 -3 -52 16 -16
19 -16 42 -1 36 24 78 83 74 104 -5 25 -40 27 -69 4z"/>
<path d="M2697 2290 c-40 -32 -33 -41 26 -38 48 3 52 5 52 28 0 34 -41 39 -78
10z"/>
</g>
</svg>
