<svg xmlns="http://www.w3.org/2000/svg" xmlns:xlink="http://www.w3.org/1999/xlink" width="500" zoomAndPan="magnify" viewBox="0 0 375 374.999991" height="500" preserveAspectRatio="xMidYMid meet" version="1.0"><defs><g/><clipPath id="f476f30f55"><path d="M 56.078125 134.398438 L 148.328125 134.398438 L 148.328125 240.898438 L 56.078125 240.898438 Z M 56.078125 134.398438 " clip-rule="nonzero"/></clipPath></defs><rect x="-37.5" width="450" fill="#ffffff" y="-37.499999" height="449.999989" fill-opacity="1"/><rect x="-37.5" width="450" fill="#0097b2" y="-37.499999" height="449.999989" fill-opacity="1"/><g clip-path="url(#f476f30f55)"><path fill="#ffffff" d="M 56.085938 166.359375 L 56.085938 190.191406 L 65.421875 195.585938 L 113.402344 223.285156 L 102.074219 229.808594 L 65.421875 208.671875 L 56.085938 203.28125 L 56.085938 214.066406 L 102.074219 240.59375 L 111.410156 235.203125 L 118.050781 231.375 L 122.742188 228.675781 L 125.085938 227.347656 L 127.390625 225.980469 L 132.078125 223.285156 L 143.410156 216.761719 L 147.785156 214.222656 L 148.058594 213.753906 L 148.058594 184.800781 L 138.722656 179.410156 L 90.742188 151.707031 L 102.074219 145.183594 L 138.722656 166.359375 L 148.058594 171.75 L 148.058594 160.96875 L 102.074219 134.398438 L 92.734375 139.789062 L 86.09375 143.621094 L 81.402344 146.316406 L 79.097656 147.683594 L 76.753906 149.011719 L 72.066406 151.707031 L 60.734375 158.269531 L 56.359375 160.8125 L 56.085938 161.28125 Z M 138.722656 190.191406 L 134.070312 187.496094 L 128.757812 184.449219 L 86.09375 159.796875 L 86.09375 172.882812 L 111.410156 187.496094 L 118.050781 191.324219 L 127.390625 196.71875 L 127.390625 215.199219 L 134.070312 211.367188 L 138.722656 208.671875 Z M 65.421875 184.800781 L 70.074219 187.496094 L 73.238281 189.292969 L 118.050781 215.199219 L 118.050781 202.109375 L 92.734375 187.496094 L 86.09375 183.667969 L 76.753906 178.277344 L 76.753906 159.796875 L 70.074219 163.664062 L 65.421875 166.359375 Z M 65.421875 184.800781 " fill-opacity="1" fill-rule="evenodd"/></g><g fill="#ffffff" fill-opacity="1"><g transform="translate(153.942278, 196.499109)"><g><path d="M 8.84375 0.359375 C 6.507812 0.359375 4.632812 -0.226562 3.21875 -1.40625 C 1.800781 -2.59375 1.070312 -4.257812 1.03125 -6.40625 L 5.875 -6.40625 C 5.914062 -5.507812 6.179688 -4.8125 6.671875 -4.3125 C 7.171875 -3.820312 7.882812 -3.578125 8.8125 -3.578125 C 9.695312 -3.578125 10.363281 -3.742188 10.8125 -4.078125 C 11.257812 -4.421875 11.484375 -4.878906 11.484375 -5.453125 C 11.484375 -6.085938 11.191406 -6.578125 10.609375 -6.921875 C 10.035156 -7.273438 9.125 -7.644531 7.875 -8.03125 C 6.5625 -8.445312 5.476562 -8.859375 4.625 -9.265625 C 3.78125 -9.679688 3.054688 -10.296875 2.453125 -11.109375 C 1.847656 -11.929688 1.546875 -13.015625 1.546875 -14.359375 C 1.546875 -15.441406 1.847656 -16.40625 2.453125 -17.25 C 3.054688 -18.101562 3.898438 -18.769531 4.984375 -19.25 C 6.066406 -19.726562 7.304688 -19.96875 8.703125 -19.96875 C 9.972656 -19.96875 11.160156 -19.734375 12.265625 -19.265625 C 13.367188 -18.796875 14.265625 -18.082031 14.953125 -17.125 C 15.640625 -16.164062 15.992188 -14.984375 16.015625 -13.578125 L 11.25 -13.578125 C 11.238281 -14.265625 11.019531 -14.84375 10.59375 -15.3125 C 10.175781 -15.78125 9.546875 -16.015625 8.703125 -16.015625 C 7.972656 -16.015625 7.40625 -15.851562 7 -15.53125 C 6.601562 -15.21875 6.40625 -14.789062 6.40625 -14.25 C 6.40625 -13.613281 6.691406 -13.128906 7.265625 -12.796875 C 7.847656 -12.460938 8.757812 -12.097656 10 -11.703125 C 11.300781 -11.304688 12.375 -10.90625 13.21875 -10.5 C 14.070312 -10.09375 14.804688 -9.472656 15.421875 -8.640625 C 16.046875 -7.804688 16.359375 -6.707031 16.359375 -5.34375 C 16.359375 -4.300781 16.0625 -3.34375 15.46875 -2.46875 C 14.882812 -1.601562 14.023438 -0.914062 12.890625 -0.40625 C 11.765625 0.101562 10.414062 0.359375 8.84375 0.359375 Z M 8.84375 0.359375 "/></g></g></g><g fill="#ffffff" fill-opacity="1"><g transform="translate(171.327901, 196.499109)"><g><path d="M 8.875 -12.296875 L 12.453125 -19.59375 L 17.703125 -19.59375 L 11.25 -7.5625 L 11.25 0 L 6.359375 0 L 6.359375 -7.5625 L -0.03125 -19.59375 L 5.296875 -19.59375 Z M 8.875 -12.296875 "/></g></g></g><g fill="#ffffff" fill-opacity="1"><g transform="translate(188.993492, 196.499109)"><g><path d="M 16.078125 -7.78125 L 16.078125 -19.59375 L 20.78125 -19.59375 L 20.78125 0 L 17.359375 0 L 7 -11.765625 L 7 0 L 2.296875 0 L 2.296875 -19.59375 L 5.6875 -19.59375 Z M 16.078125 -7.78125 "/></g></g></g><g fill="#ffffff" fill-opacity="1"><g transform="translate(212.03435, 196.499109)"><g><path d="M 7.203125 -7.984375 L 7.203125 -4.171875 L 15.234375 -4.171875 L 15.234375 0 L 2.296875 0 L 2.296875 -19.59375 L 14.953125 -19.59375 L 14.953125 -15.421875 L 7.203125 -15.421875 L 7.203125 -12.046875 L 14.671875 -12.046875 L 14.671875 -7.984375 Z M 7.203125 -7.984375 "/></g></g></g><g fill="#ffffff" fill-opacity="1"><g transform="translate(228.720075, 196.499109)"><g><path d="M 12.765625 -10.15625 L 18.734375 0 L 13.25 0 L 9.484375 -6.796875 L 5.765625 0 L 0.34375 0 L 6.296875 -10.140625 L 0.921875 -19.59375 L 6.328125 -19.59375 L 9.546875 -13.4375 L 12.765625 -19.59375 L 18.140625 -19.59375 Z M 12.765625 -10.15625 "/></g></g></g><g fill="#ffffff" fill-opacity="1"><g transform="translate(247.75748, 196.499109)"><g/></g></g><g fill="#ffffff" fill-opacity="1"><g transform="translate(256.268325, 196.499109)"><g><path d="M 11.5625 0.359375 C 9.695312 0.359375 7.960938 -0.0546875 6.359375 -0.890625 C 4.765625 -1.734375 3.492188 -2.925781 2.546875 -4.46875 C 1.597656 -6.019531 1.125 -7.796875 1.125 -9.796875 C 1.125 -11.796875 1.597656 -13.566406 2.546875 -15.109375 C 3.492188 -16.660156 4.765625 -17.859375 6.359375 -18.703125 C 7.960938 -19.546875 9.695312 -19.96875 11.5625 -19.96875 C 13.164062 -19.96875 14.65625 -19.65625 16.03125 -19.03125 C 17.414062 -18.414062 18.597656 -17.523438 19.578125 -16.359375 C 20.566406 -15.191406 21.253906 -13.828125 21.640625 -12.265625 L 16.546875 -12.265625 C 16.140625 -13.234375 15.5 -14.007812 14.625 -14.59375 C 13.757812 -15.1875 12.75 -15.484375 11.59375 -15.484375 C 10.5625 -15.484375 9.625 -15.234375 8.78125 -14.734375 C 7.945312 -14.242188 7.289062 -13.566406 6.8125 -12.703125 C 6.34375 -11.847656 6.109375 -10.878906 6.109375 -9.796875 C 6.109375 -8.710938 6.34375 -7.738281 6.8125 -6.875 C 7.289062 -6.019531 7.945312 -5.34375 8.78125 -4.84375 C 9.625 -4.351562 10.5625 -4.109375 11.59375 -4.109375 C 12.789062 -4.109375 13.816406 -4.398438 14.671875 -4.984375 C 15.523438 -5.578125 16.160156 -6.367188 16.578125 -7.359375 L 21.640625 -7.359375 C 21.253906 -5.773438 20.570312 -4.398438 19.59375 -3.234375 C 18.625 -2.066406 17.445312 -1.175781 16.0625 -0.5625 C 14.6875 0.0507812 13.1875 0.359375 11.5625 0.359375 Z M 11.5625 0.359375 "/></g></g></g><g fill="#ffffff" fill-opacity="1"><g transform="translate(278.861238, 196.499109)"><g><path d="M 11.640625 0.359375 C 9.753906 0.359375 8.003906 -0.0625 6.390625 -0.90625 C 4.773438 -1.757812 3.492188 -2.957031 2.546875 -4.5 C 1.597656 -6.050781 1.125 -7.816406 1.125 -9.796875 C 1.125 -11.773438 1.597656 -13.539062 2.546875 -15.09375 C 3.492188 -16.644531 4.773438 -17.84375 6.390625 -18.6875 C 8.003906 -19.539062 9.753906 -19.96875 11.640625 -19.96875 C 13.523438 -19.96875 15.273438 -19.539062 16.890625 -18.6875 C 18.503906 -17.84375 19.785156 -16.644531 20.734375 -15.09375 C 21.691406 -13.539062 22.171875 -11.773438 22.171875 -9.796875 C 22.171875 -7.816406 21.691406 -6.050781 20.734375 -4.5 C 19.785156 -2.957031 18.503906 -1.757812 16.890625 -0.90625 C 15.273438 -0.0625 13.523438 0.359375 11.640625 0.359375 Z M 11.640625 -4.109375 C 12.691406 -4.109375 13.640625 -4.351562 14.484375 -4.84375 C 15.335938 -5.332031 16 -6.003906 16.46875 -6.859375 C 16.945312 -7.710938 17.1875 -8.691406 17.1875 -9.796875 C 17.1875 -10.898438 16.945312 -11.878906 16.46875 -12.734375 C 16 -13.597656 15.335938 -14.269531 14.484375 -14.75 C 13.640625 -15.238281 12.691406 -15.484375 11.640625 -15.484375 C 10.597656 -15.484375 9.648438 -15.238281 8.796875 -14.75 C 7.953125 -14.269531 7.289062 -13.597656 6.8125 -12.734375 C 6.34375 -11.878906 6.109375 -10.898438 6.109375 -9.796875 C 6.109375 -8.691406 6.34375 -7.710938 6.8125 -6.859375 C 7.289062 -6.003906 7.953125 -5.332031 8.796875 -4.84375 C 9.648438 -4.351562 10.597656 -4.109375 11.640625 -4.109375 Z M 11.640625 -4.109375 "/></g></g></g><g fill="#ffffff" fill-opacity="1"><g transform="translate(302.15406, 196.499109)"><g><path d="M 2.296875 0 L 2.296875 -19.59375 L 9.296875 -19.59375 C 11.492188 -19.59375 13.421875 -19.1875 15.078125 -18.375 C 16.734375 -17.570312 18.007812 -16.425781 18.90625 -14.9375 C 19.8125 -13.457031 20.265625 -11.742188 20.265625 -9.796875 C 20.265625 -7.859375 19.8125 -6.144531 18.90625 -4.65625 C 18.007812 -3.175781 16.734375 -2.03125 15.078125 -1.21875 C 13.421875 -0.40625 11.492188 0 9.296875 0 Z M 9.1875 -4.28125 C 11.070312 -4.28125 12.554688 -4.78125 13.640625 -5.78125 C 14.722656 -6.78125 15.265625 -8.117188 15.265625 -9.796875 C 15.265625 -11.472656 14.722656 -12.8125 13.640625 -13.8125 C 12.554688 -14.8125 11.070312 -15.3125 9.1875 -15.3125 L 7.203125 -15.3125 L 7.203125 -4.28125 Z M 9.1875 -4.28125 "/></g></g></g><g fill="#ffffff" fill-opacity="1"><g transform="translate(323.543147, 196.499109)"><g><path d="M 7.203125 -7.984375 L 7.203125 -4.171875 L 15.234375 -4.171875 L 15.234375 0 L 2.296875 0 L 2.296875 -19.59375 L 14.953125 -19.59375 L 14.953125 -15.421875 L 7.203125 -15.421875 L 7.203125 -12.046875 L 14.671875 -12.046875 L 14.671875 -7.984375 Z M 7.203125 -7.984375 "/></g></g></g><g fill="#ffffff" fill-opacity="1"><g transform="translate(177.686702, 210.73422)"><g><path d="M 2.09375 0 L 0.703125 0 L 0.703125 -5.59375 L 2.09375 -5.59375 Z M 2.09375 0 "/></g></g></g><g fill="#ffffff" fill-opacity="1"><g transform="translate(183.110735, 210.73422)"><g><path d="M 4.59375 -2.21875 L 4.59375 -5.59375 L 5.9375 -5.59375 L 5.9375 0 L 4.953125 0 L 2 -3.359375 L 2 0 L 0.65625 0 L 0.65625 -5.59375 L 1.625 -5.59375 Z M 4.59375 -2.21875 "/></g></g></g><g fill="#ffffff" fill-opacity="1"><g transform="translate(192.334808, 210.73422)"><g><path d="M 4.59375 -2.21875 L 4.59375 -5.59375 L 5.9375 -5.59375 L 5.9375 0 L 4.953125 0 L 2 -3.359375 L 2 0 L 0.65625 0 L 0.65625 -5.59375 L 1.625 -5.59375 Z M 4.59375 -2.21875 "/></g></g></g><g fill="#ffffff" fill-opacity="1"><g transform="translate(201.558882, 210.73422)"><g><path d="M 3.328125 0.109375 C 2.785156 0.109375 2.285156 -0.0078125 1.828125 -0.25 C 1.367188 -0.5 1 -0.84375 0.71875 -1.28125 C 0.445312 -1.726562 0.3125 -2.234375 0.3125 -2.796875 C 0.3125 -3.359375 0.445312 -3.859375 0.71875 -4.296875 C 1 -4.742188 1.367188 -5.085938 1.828125 -5.328125 C 2.285156 -5.578125 2.785156 -5.703125 3.328125 -5.703125 C 3.867188 -5.703125 4.367188 -5.578125 4.828125 -5.328125 C 5.285156 -5.085938 5.648438 -4.742188 5.921875 -4.296875 C 6.191406 -3.859375 6.328125 -3.359375 6.328125 -2.796875 C 6.328125 -2.234375 6.191406 -1.726562 5.921875 -1.28125 C 5.648438 -0.84375 5.285156 -0.5 4.828125 -0.25 C 4.367188 -0.0078125 3.867188 0.109375 3.328125 0.109375 Z M 3.328125 -1.171875 C 3.628906 -1.171875 3.898438 -1.238281 4.140625 -1.375 C 4.378906 -1.519531 4.566406 -1.710938 4.703125 -1.953125 C 4.835938 -2.203125 4.90625 -2.484375 4.90625 -2.796875 C 4.90625 -3.109375 4.835938 -3.390625 4.703125 -3.640625 C 4.566406 -3.890625 4.378906 -4.082031 4.140625 -4.21875 C 3.898438 -4.351562 3.628906 -4.421875 3.328125 -4.421875 C 3.023438 -4.421875 2.753906 -4.351562 2.515625 -4.21875 C 2.273438 -4.082031 2.085938 -3.890625 1.953125 -3.640625 C 1.816406 -3.390625 1.75 -3.109375 1.75 -2.796875 C 1.75 -2.484375 1.816406 -2.203125 1.953125 -1.953125 C 2.085938 -1.710938 2.273438 -1.519531 2.515625 -1.375 C 2.753906 -1.238281 3.023438 -1.171875 3.328125 -1.171875 Z M 3.328125 -1.171875 "/></g></g></g><g fill="#ffffff" fill-opacity="1"><g transform="translate(210.854956, 210.73422)"><g><path d="M 2.828125 -1.890625 L 4.078125 -5.59375 L 5.546875 -5.59375 L 3.46875 0 L 2.15625 0 L 0.078125 -5.59375 L 1.5625 -5.59375 Z M 2.828125 -1.890625 "/></g></g></g><g fill="#ffffff" fill-opacity="1"><g transform="translate(219.119024, 210.73422)"><g><path d="M 5.78125 0 L 4.34375 0 L 3.953125 -1.09375 L 1.859375 -1.09375 L 1.484375 0 L 0.0625 0 L 2.1875 -5.59375 L 3.640625 -5.59375 Z M 2.21875 -2.265625 L 3.59375 -2.265625 L 2.90625 -4.203125 Z M 2.21875 -2.265625 "/></g></g></g><g fill="#ffffff" fill-opacity="1"><g transform="translate(227.591093, 210.73422)"><g><path d="M 2.9375 0 L 1.53125 0 L 1.53125 -4.34375 L 0.15625 -4.34375 L 0.15625 -5.59375 L 4.296875 -5.59375 L 4.296875 -4.34375 L 2.9375 -4.34375 Z M 2.9375 0 "/></g></g></g><g fill="#ffffff" fill-opacity="1"><g transform="translate(234.687148, 210.73422)"><g><path d="M 2.0625 -2.28125 L 2.0625 -1.1875 L 4.359375 -1.1875 L 4.359375 0 L 0.65625 0 L 0.65625 -5.59375 L 4.265625 -5.59375 L 4.265625 -4.40625 L 2.0625 -4.40625 L 2.0625 -3.4375 L 4.1875 -3.4375 L 4.1875 -2.28125 Z M 2.0625 -2.28125 "/></g></g></g><g fill="#ffffff" fill-opacity="1"><g transform="translate(242.095205, 210.73422)"><g/></g></g><g fill="#ffffff" fill-opacity="1"><g transform="translate(247.167237, 210.73422)"><g><path d="M 5.875 -2.125 L 6.859375 -5.59375 L 8.328125 -5.59375 L 6.515625 0 L 5.296875 0 L 4.21875 -3.59375 L 3.125 0 L 1.921875 0 L 0.09375 -5.59375 L 1.578125 -5.59375 L 2.5625 -2.140625 L 3.640625 -5.59375 L 4.796875 -5.59375 Z M 5.875 -2.125 "/></g></g></g><g fill="#ffffff" fill-opacity="1"><g transform="translate(258.239327, 210.73422)"><g><path d="M 2.09375 0 L 0.703125 0 L 0.703125 -5.59375 L 2.09375 -5.59375 Z M 2.09375 0 "/></g></g></g><g fill="#ffffff" fill-opacity="1"><g transform="translate(263.66336, 210.73422)"><g><path d="M 2.9375 0 L 1.53125 0 L 1.53125 -4.34375 L 0.15625 -4.34375 L 0.15625 -5.59375 L 4.296875 -5.59375 L 4.296875 -4.34375 L 2.9375 -4.34375 Z M 2.9375 0 "/></g></g></g><g fill="#ffffff" fill-opacity="1"><g transform="translate(270.75942, 210.73422)"><g><path d="M 4.0625 -3.484375 L 4.0625 -5.59375 L 5.46875 -5.59375 L 5.46875 0 L 4.0625 0 L 4.0625 -2.21875 L 2.0625 -2.21875 L 2.0625 0 L 0.65625 0 L 0.65625 -5.59375 L 2.0625 -5.59375 L 2.0625 -3.484375 Z M 4.0625 -3.484375 "/></g></g></g><g fill="#ffffff" fill-opacity="1"><g transform="translate(279.511491, 210.73422)"><g/></g></g><g fill="#ffffff" fill-opacity="1"><g transform="translate(284.583528, 210.73422)"><g><path d="M 3.296875 0.109375 C 2.765625 0.109375 2.269531 -0.0078125 1.8125 -0.25 C 1.363281 -0.488281 1 -0.828125 0.71875 -1.265625 C 0.445312 -1.710938 0.3125 -2.222656 0.3125 -2.796875 C 0.3125 -3.367188 0.445312 -3.875 0.71875 -4.3125 C 1 -4.757812 1.363281 -5.101562 1.8125 -5.34375 C 2.269531 -5.582031 2.765625 -5.703125 3.296875 -5.703125 C 3.753906 -5.703125 4.179688 -5.613281 4.578125 -5.4375 C 4.972656 -5.257812 5.3125 -5.003906 5.59375 -4.671875 C 5.875 -4.335938 6.070312 -3.945312 6.1875 -3.5 L 4.734375 -3.5 C 4.609375 -3.78125 4.421875 -4.003906 4.171875 -4.171875 C 3.929688 -4.335938 3.644531 -4.421875 3.3125 -4.421875 C 3.019531 -4.421875 2.753906 -4.347656 2.515625 -4.203125 C 2.273438 -4.066406 2.085938 -3.875 1.953125 -3.625 C 1.816406 -3.382812 1.75 -3.109375 1.75 -2.796875 C 1.75 -2.492188 1.816406 -2.21875 1.953125 -1.96875 C 2.085938 -1.71875 2.273438 -1.519531 2.515625 -1.375 C 2.753906 -1.238281 3.019531 -1.171875 3.3125 -1.171875 C 3.65625 -1.171875 3.945312 -1.253906 4.1875 -1.421875 C 4.4375 -1.597656 4.617188 -1.828125 4.734375 -2.109375 L 6.1875 -2.109375 C 6.070312 -1.648438 5.875 -1.253906 5.59375 -0.921875 C 5.320312 -0.585938 4.988281 -0.332031 4.59375 -0.15625 C 4.195312 0.0195312 3.765625 0.109375 3.296875 0.109375 Z M 3.296875 0.109375 "/></g></g></g><g fill="#ffffff" fill-opacity="1"><g transform="translate(293.679604, 210.73422)"><g><path d="M 3.328125 0.109375 C 2.785156 0.109375 2.285156 -0.0078125 1.828125 -0.25 C 1.367188 -0.5 1 -0.84375 0.71875 -1.28125 C 0.445312 -1.726562 0.3125 -2.234375 0.3125 -2.796875 C 0.3125 -3.359375 0.445312 -3.859375 0.71875 -4.296875 C 1 -4.742188 1.367188 -5.085938 1.828125 -5.328125 C 2.285156 -5.578125 2.785156 -5.703125 3.328125 -5.703125 C 3.867188 -5.703125 4.367188 -5.578125 4.828125 -5.328125 C 5.285156 -5.085938 5.648438 -4.742188 5.921875 -4.296875 C 6.191406 -3.859375 6.328125 -3.359375 6.328125 -2.796875 C 6.328125 -2.234375 6.191406 -1.726562 5.921875 -1.28125 C 5.648438 -0.84375 5.285156 -0.5 4.828125 -0.25 C 4.367188 -0.0078125 3.867188 0.109375 3.328125 0.109375 Z M 3.328125 -1.171875 C 3.628906 -1.171875 3.898438 -1.238281 4.140625 -1.375 C 4.378906 -1.519531 4.566406 -1.710938 4.703125 -1.953125 C 4.835938 -2.203125 4.90625 -2.484375 4.90625 -2.796875 C 4.90625 -3.109375 4.835938 -3.390625 4.703125 -3.640625 C 4.566406 -3.890625 4.378906 -4.082031 4.140625 -4.21875 C 3.898438 -4.351562 3.628906 -4.421875 3.328125 -4.421875 C 3.023438 -4.421875 2.753906 -4.351562 2.515625 -4.21875 C 2.273438 -4.082031 2.085938 -3.890625 1.953125 -3.640625 C 1.816406 -3.390625 1.75 -3.109375 1.75 -2.796875 C 1.75 -2.484375 1.816406 -2.203125 1.953125 -1.953125 C 2.085938 -1.710938 2.273438 -1.519531 2.515625 -1.375 C 2.753906 -1.238281 3.023438 -1.171875 3.328125 -1.171875 Z M 3.328125 -1.171875 "/></g></g></g><g fill="#ffffff" fill-opacity="1"><g transform="translate(302.975683, 210.73422)"><g><path d="M 0.65625 0 L 0.65625 -5.59375 L 2.65625 -5.59375 C 3.28125 -5.59375 3.828125 -5.476562 4.296875 -5.25 C 4.773438 -5.019531 5.144531 -4.691406 5.40625 -4.265625 C 5.664062 -3.835938 5.796875 -3.347656 5.796875 -2.796875 C 5.796875 -2.242188 5.664062 -1.753906 5.40625 -1.328125 C 5.144531 -0.910156 4.773438 -0.582031 4.296875 -0.34375 C 3.828125 -0.113281 3.28125 0 2.65625 0 Z M 2.625 -1.21875 C 3.164062 -1.21875 3.585938 -1.359375 3.890625 -1.640625 C 4.203125 -1.929688 4.359375 -2.316406 4.359375 -2.796875 C 4.359375 -3.273438 4.203125 -3.65625 3.890625 -3.9375 C 3.585938 -4.226562 3.164062 -4.375 2.625 -4.375 L 2.0625 -4.375 L 2.0625 -1.21875 Z M 2.625 -1.21875 "/></g></g></g><g fill="#ffffff" fill-opacity="1"><g transform="translate(311.727754, 210.73422)"><g><path d="M 2.0625 -2.28125 L 2.0625 -1.1875 L 4.359375 -1.1875 L 4.359375 0 L 0.65625 0 L 0.65625 -5.59375 L 4.265625 -5.59375 L 4.265625 -4.40625 L 2.0625 -4.40625 L 2.0625 -3.4375 L 4.1875 -3.4375 L 4.1875 -2.28125 Z M 2.0625 -2.28125 "/></g></g></g></svg>